<?xml version="1.0"?><svg fill="#000000" xmlns="http://www.w3.org/2000/svg"  viewBox="0 0 24 24" width="24px" height="24px">    <path d="M 12 2 C 6.4886661 2 2 6.4886661 2 12 C 2 13.954318 2.5717922 15.780244 3.5410156 17.318359 A 1.0001 1.0001 0 1 0 5.2324219 16.251953 C 4.4536453 15.016069 4 13.565682 4 12 C 4 7.9088444 7.045415 4.5587782 11 4.0683594 L 11 6.0917969 C 8.1717924 6.5721157 6 9.039829 6 12 C 6 14.960171 8.1717924 17.427884 11 17.908203 L 11 19.927734 C 9.8166087 19.778369 8.7159629 19.377498 7.7480469 18.767578 A 1.0001 1.0001 0 1 0 6.6816406 20.458984 C 8.2195726 21.428092 10.044792 22 12 22 C 17.511334 22 22 17.511334 22 12 C 22 10.044792 21.428092 8.2195726 20.458984 6.6816406 A 1.0001 1.0001 0 0 0 19.628906 6.203125 A 1.0001 1.0001 0 0 0 18.767578 7.7480469 C 19.54647 8.9841149 20 10.433208 20 12 C 20 16.091155 16.954585 19.441222 13 19.931641 L 13 17.90625 C 13.412802 17.833543 13.809913 17.724291 14.183594 17.578125 A 1.0003189 1.0003189 0 0 0 13.455078 15.714844 C 12.992048 15.895958 12.506142 16 12 16 C 9.7796254 16 8 14.220375 8 12 C 8 9.7796254 9.7796254 8 12 8 C 14.220375 8 16 9.7796254 16 12 C 16 12.506142 15.895958 12.992048 15.714844 13.455078 A 1.0003189 1.0003189 0 0 0 17.578125 14.183594 C 17.839011 13.516624 18 12.779858 18 12 C 18 9.039829 15.828207 6.5721157 13 6.0917969 L 13 4.0722656 C 14.183391 4.2216306 15.284037 4.6225021 16.251953 5.2324219 A 1.0001 1.0001 0 1 0 17.318359 3.5410156 C 15.780427 2.5719078 13.955208 2 12 2 z M 12 10 A 2 2 0 0 0 10 12 A 2 2 0 0 0 12 14 A 2 2 0 0 0 14 12 A 2 2 0 0 0 12 10 z"/></svg>